G04 CAM350 V5.0 Date:  Mon Oct 28 13:20:47 2002 *
G04 Database: d:\newjobs\bc-data\1687\1687.pcb *
G04 Layer 2: l2.gbr *
%FSTAX24Y24*%
%MOIN*%
%SFA1.000B1.000*%

%MIA0B0*%
%IPPOS*%
%ADD12C,0.00800*%
%ADD28R,0.03500X0.03500*%
%LNl2.gbr*%
G54D12*
%LPD*%
G36*
X011418Y000381D02*
G01X000378D01*
Y012721*
X011418*
Y000381*
G37*
G54D28*
X000203Y000206D02*
G01X011593D01*
Y012896*
X000203*
Y000206*
G54D12*
G01X001166Y016256D02*
Y0156D01*
Y0156D02*
X001541D01*
X001853Y016256D02*
X001603Y0156D01*
X001853Y016256D02*
X002103Y0156D01*
X001697Y015819D02*
X00201D01*
X002166Y016256D02*
X002416Y015944D01*
Y0156D01*
X002666Y016256D02*
X002416Y015944D01*
X002822Y016256D02*
Y0156D01*
Y016256D02*
X003228D01*
X002822Y015944D02*
X003072D01*
X002822Y0156D02*
X003228D01*
X003416Y016256D02*
Y0156D01*
Y016256D02*
X003697D01*
X003791Y016225D01*
X003822Y016194D01*
X003853Y016131D01*
Y016069D01*
X003822Y016006D01*
X003791Y015975D01*
X003697Y015944D01*
X003416D01*
X003635D02*
X003853Y0156D01*
X004572Y0161D02*
Y016131D01*
X004603Y016194D01*
X004635Y016225D01*
X004697Y016256D01*
X004822D01*
X004885Y016225D01*
X004916Y016194D01*
X004947Y016131D01*
Y016069D01*
X004916Y016006D01*
X004853Y015912D01*
X004541Y0156D01*
X004978D01*
M02*
