G04 CAM350 V5.0 Date:  Mon Oct 28 13:20:47 2002 *
G04 Database: d:\newjobs\bc-data\1687\1687.pcb *
G04 Layer 3: drl-plot *
%FSTAX24Y24*%
%MOIN*%
%SFA1.000B1.000*%

%MIA0B0*%
%IPPOS*%
%ADD11C,0.01800*%
%ADD12C,0.00800*%
%ADD71C,0.00600*%
%LNdrl-plot*%
G54D11*
%LPD*%
G54D11*
X004493Y007552D03*
X004488Y007216D03*
X004499Y006905D03*
X002415Y005386D03*
Y004876D03*
X002933D03*
X002924Y005377D03*
X004245Y005411D03*
Y005069D03*
Y004766D03*
X0051Y00354D03*
X005608Y003529D03*
X005623Y003031D03*
X005099Y003044D03*
X008941Y004059D03*
X009429D03*
X00944Y004556D03*
X008933D03*
G54D71*
X0Y0D02*
G01X0118D01*
Y0131*
X0*
Y0*
G54D12*
G01X001166Y016256D02*
Y0156D01*
Y016256D02*
X001385D01*
X001478Y016225D01*
X001541Y016162D01*
X001572Y0161D01*
X001603Y016006D01*
Y01585D01*
X001572Y015756D01*
X001541Y015694D01*
X001478Y015631D01*
X001385Y0156D01*
X001166D01*
X001822Y016256D02*
Y0156D01*
Y016256D02*
X002103D01*
X002197Y016225D01*
X002228Y016194D01*
X00226Y016131D01*
Y016069D01*
X002228Y016006D01*
X002197Y015975D01*
X002103Y015944D01*
X001822D01*
X002041D02*
X00226Y0156D01*
X002478Y016256D02*
Y0156D01*
X002728Y016256D02*
Y0156D01*
Y0156D02*
X003103D01*
X00326Y016256D02*
Y0156D01*
Y0156D02*
X003635D01*
X004291Y016256D02*
Y0156D01*
Y016256D02*
X004572D01*
X004666Y016225D01*
X004697Y016194D01*
X004728Y016131D01*
Y016037D01*
X004697Y015975D01*
X004666Y015944D01*
X004572Y015912D01*
X004291D01*
X004947Y016256D02*
Y0156D01*
Y0156D02*
X005322D01*
X005635Y016256D02*
X005572Y016225D01*
X00551Y016162D01*
X005478Y0161D01*
X005447Y016006D01*
Y01585D01*
X005478Y015756D01*
X00551Y015694D01*
X005572Y015631D01*
X005635Y0156D01*
X00576D01*
X005822Y015631D01*
X005885Y015694D01*
X005916Y015756D01*
X005947Y01585D01*
Y016006D01*
X005916Y0161D01*
X005885Y016162D01*
X005822Y016225D01*
X00576Y016256D01*
X005635D01*
X006291D02*
Y0156D01*
X006072Y016256D02*
X00651D01*
M02*
